<?xml version="1.0" encoding="UTF-8"?>
<svg xmlns="http://www.w3.org/2000/svg" xmlns:xlink="http://www.w3.org/1999/xlink" width="32px" height="32px" viewBox="0 0 32 32" version="1.1">
<g id="surface1">
<path style=" stroke:none;fill-rule:nonzero;fill:rgb(0%,0%,0%);fill-opacity:1;" d="M 13.59375 0.582031 C 10.363281 1.054688 7.074219 2.71875 4.699219 5.125 C 0.101562 9.75 -1.238281 16.625 1.265625 22.648438 C 2.632812 25.9375 5.59375 29.082031 8.824219 30.691406 C 11.730469 32.140625 12.226562 31.914062 12.027344 29.28125 L 11.929688 27.914062 L 11.03125 28 C 10.519531 28.042969 9.722656 28 9.179688 27.898438 C 7.84375 27.644531 7.21875 27.132812 6.535156 25.75 C 6.019531 24.710938 5.480469 24.042969 4.613281 23.402344 C 4.101562 23.019531 4.226562 22.632812 4.867188 22.632812 C 5.539062 22.632812 6.492188 23.160156 7.019531 23.800781 C 8.796875 26.035156 9.539062 26.378906 11.359375 25.835938 C 11.914062 25.664062 12.101562 25.539062 12.101562 25.351562 C 12.101562 25.195312 12.285156 24.726562 12.511719 24.285156 L 12.941406 23.5 L 12.414062 23.402344 C 7.773438 22.621094 5.707031 20.101562 5.863281 15.445312 C 5.90625 14.105469 5.964844 13.765625 6.304688 13.023438 C 6.519531 12.570312 6.859375 11.972656 7.058594 11.714844 C 7.386719 11.273438 7.402344 11.1875 7.246094 10.71875 C 7.058594 10.148438 7.144531 8.355469 7.402344 7.5 C 7.542969 7.019531 7.601562 6.976562 8.058594 6.976562 C 8.667969 6.976562 10.179688 7.542969 11.246094 8.199219 L 12.027344 8.65625 L 12.953125 8.425781 C 14.234375 8.113281 17.792969 8.113281 19.074219 8.425781 L 19.984375 8.65625 L 20.925781 8.128906 C 22.078125 7.460938 23.34375 6.976562 23.972656 6.976562 C 24.425781 6.976562 24.457031 7.003906 24.683594 7.800781 C 24.941406 8.753906 24.980469 10.148438 24.753906 10.789062 C 24.625 11.175781 24.640625 11.289062 24.96875 11.699219 C 25.167969 11.972656 25.507812 12.570312 25.722656 13.023438 C 26.050781 13.75 26.121094 14.105469 26.164062 15.402344 C 26.304688 19.003906 25.109375 21.28125 22.433594 22.5625 C 21.652344 22.933594 19.6875 23.488281 19.160156 23.488281 C 19.132812 23.488281 19.300781 23.871094 19.542969 24.355469 L 19.984375 25.210938 L 20.042969 28.226562 C 20.085938 30.121094 20.15625 31.316406 20.257812 31.445312 C 20.640625 31.914062 22.746094 31.117188 24.910156 29.679688 C 26.546875 28.597656 28.300781 26.820312 29.410156 25.109375 C 33.539062 18.789062 32.683594 10.503906 27.332031 5.125 C 24.898438 2.660156 21.679688 1.054688 18.304688 0.582031 C 17.039062 0.398438 14.832031 0.414062 13.59375 0.582031 Z M 13.59375 0.582031 "/>
</g>
</svg>
