<svg width="166" height="43" viewBox="0 0 166 43" fill="none" xmlns="http://www.w3.org/2000/svg">
<path d="M37.888 42.248C35.808 42.248 34.32 41.656 33.424 40.472C32.528 39.256 32.08 37.48 32.08 35.144C32.08 32.808 32.832 27.432 34.336 19.016H33.568C31.616 21.576 30 24.632 28.72 28.184C27.44 31.736 26.656 34.936 26.368 37.784C24.8 39.256 22.992 39.992 20.944 39.992C20.112 39.992 19.376 39.704 18.736 39.128C18.128 38.52 17.52 37.48 16.912 36.008C15.728 33.032 14.88 27.368 14.368 19.016H13.6C12.032 25.896 11.248 30.744 11.248 33.56C11.248 36.376 11.728 38.552 12.688 40.088C10.768 41.528 8.768 42.248 6.688 42.248C4.608 42.248 3.12 41.656 2.224 40.472C1.328 39.256 0.88 37.464 0.88 35.096C0.88 32.696 1.888 25.928 3.904 14.792L1.36 9.656C4.976 7.32 8.272 6.152 11.248 6.152C12.56 6.152 13.664 6.296 14.56 6.584C15.488 6.84 16.368 7.352 17.2 8.12C18.064 8.888 18.768 9.96 19.312 11.336C20.56 14.44 21.456 18.968 22 24.92H22.576C24.24 20.024 26.544 15.816 29.488 12.296C31.088 10.408 32.992 8.92 35.2 7.832C37.44 6.744 39.856 6.2 42.448 6.2C44.912 6.2 46.144 7.688 46.144 10.664C46.144 11.656 45.52 15.352 44.272 21.752C43.056 28.12 42.448 31.912 42.448 33.128C42.448 36.232 42.928 38.552 43.888 40.088C41.968 41.528 39.968 42.248 37.888 42.248ZM65.8784 4.616C65.8784 5.832 65.2384 6.888 63.9584 7.784C62.6784 8.648 61.2224 9.08 59.5904 9.08C57.9584 9.08 56.6624 8.76 55.7024 8.12C54.7744 7.48 54.3104 6.616 54.3104 5.528C54.3104 4.056 54.9984 2.904 56.3744 2.072C57.7504 1.24 59.2064 0.823999 60.7424 0.823999C62.2784 0.823999 63.5104 1.144 64.4384 1.784C65.3984 2.424 65.8784 3.368 65.8784 4.616ZM56.5184 42.2C54.5344 42.2 53.0944 41.704 52.1984 40.712C51.3024 39.72 50.8544 38.216 50.8544 36.2C50.8544 34.152 51.8784 28.696 53.9264 19.832L51.2384 15.8C55.2384 13.4 58.3904 12.2 60.6944 12.2C62.0064 12.2 62.9344 12.488 63.4784 13.064C64.0224 13.608 64.2944 14.504 64.2944 15.752C64.2944 16.232 63.7024 19.048 62.5184 24.2C61.3344 29.352 60.7424 33.032 60.7424 35.24C60.7424 37.448 61.2384 38.984 62.2304 39.848C60.4384 41.416 58.5344 42.2 56.5184 42.2ZM99.6078 20.744L100.088 20.984C103.512 15.128 107.704 12.2 112.664 12.2C116.536 12.2 118.472 14.136 118.472 18.008C118.472 19.672 117.992 22.488 117.032 26.456C116.104 30.424 115.64 33.416 115.64 35.432C115.64 37.448 115.976 38.92 116.648 39.848C114.952 41.416 113.16 42.2 111.272 42.2C107.592 42.2 105.752 40.216 105.752 36.248C105.752 34.776 106.232 32.28 107.192 28.76C108.152 25.24 108.632 22.952 108.632 21.896C108.632 20.456 108.088 19.736 107 19.736C106.104 19.736 105.096 20.136 103.976 20.936C102.888 21.704 101.832 22.76 100.808 24.104C99.8158 25.416 98.9678 27.096 98.2638 29.144C97.5918 31.16 97.2558 33.224 97.2558 35.336C97.2558 37.416 97.5918 38.92 98.2638 39.848C96.5678 41.416 94.7758 42.2 92.8878 42.2C89.2078 42.2 87.3678 40.216 87.3678 36.248C87.3678 34.776 87.8478 32.28 88.8078 28.76C89.7678 25.24 90.2478 22.952 90.2478 21.896C90.2478 20.456 89.7038 19.736 88.6158 19.736C87.7198 19.736 86.7118 20.136 85.5918 20.936C84.5038 21.704 83.4478 22.76 82.4238 24.104C81.4318 25.416 80.5838 27.096 79.8798 29.144C79.2078 31.16 78.8718 33.224 78.8718 35.336C78.8718 37.416 79.2078 38.92 79.8798 39.848C78.1838 41.416 76.3918 42.2 74.5038 42.2C70.8238 42.2 68.9838 40.216 68.9838 36.248C68.9838 34.968 69.3038 32.488 69.9438 28.808C70.6158 25.128 71.3038 21.768 72.0078 18.728L69.5117 14.888C72.6798 13.096 75.6078 12.2 78.2958 12.2C80.9838 12.2 82.3278 13.416 82.3278 15.848C82.3278 17.448 81.9598 19.08 81.2238 20.744L81.7038 20.984C85.1278 15.128 89.3198 12.2 94.2798 12.2C96.0718 12.2 97.4798 12.648 98.5038 13.544C99.5598 14.44 100.088 15.784 100.088 17.576C100.088 18.536 99.9278 19.592 99.6078 20.744ZM138.769 4.616C138.769 5.832 138.129 6.888 136.849 7.784C135.569 8.648 134.113 9.08 132.481 9.08C130.849 9.08 129.553 8.76 128.593 8.12C127.665 7.48 127.201 6.616 127.201 5.528C127.201 4.056 127.889 2.904 129.265 2.072C130.641 1.24 132.097 0.823999 133.633 0.823999C135.169 0.823999 136.401 1.144 137.329 1.784C138.289 2.424 138.769 3.368 138.769 4.616ZM129.409 42.2C127.425 42.2 125.985 41.704 125.089 40.712C124.193 39.72 123.745 38.216 123.745 36.2C123.745 34.152 124.769 28.696 126.817 19.832L124.129 15.8C128.129 13.4 131.281 12.2 133.585 12.2C134.897 12.2 135.825 12.488 136.369 13.064C136.913 13.608 137.185 14.504 137.185 15.752C137.185 16.232 136.593 19.048 135.409 24.2C134.225 29.352 133.633 33.032 133.633 35.24C133.633 37.448 134.129 38.984 135.121 39.848C133.329 41.416 131.425 42.2 129.409 42.2ZM141.874 36.248C141.874 34.968 142.194 32.488 142.834 28.808C143.506 25.128 144.194 21.768 144.898 18.728L142.402 14.888C146.402 13.096 149.202 12.2 150.802 12.2C152.434 12.2 153.25 13.224 153.25 15.272C153.25 16.392 152.722 18.728 151.666 22.28L152.146 22.52C154.45 15.64 157.314 12.2 160.738 12.2C162.306 12.2 163.506 12.68 164.338 13.64C165.17 14.6 165.586 15.672 165.586 16.856C165.586 18.616 164.93 20.12 163.618 21.368C162.306 22.616 160.338 23.24 157.714 23.24C153.746 23.24 151.762 27.32 151.762 35.48C151.762 37.464 152.098 38.92 152.77 39.848C150.786 41.416 148.962 42.2 147.298 42.2C143.682 42.2 141.874 40.216 141.874 36.248Z" fill="#023047"/>
</svg>
