<svg width="30" height="25" viewBox="0 0 30 25" fill="none" xmlns="http://www.w3.org/2000/svg">
<path d="M10.8955 25L10.2985 21C9.97512 20.8958 9.6704 20.7708 9.38433 20.625C9.09826 20.4792 8.81841 20.3229 8.54478 20.1562L4.10448 21.7188L0 15.7812L3.84328 13.3438C3.81841 13.1979 3.80597 13.0573 3.80597 12.9219V12.0781C3.80597 11.9427 3.81841 11.8021 3.84328 11.6562L0 9.21875L4.10448 3.28125L8.54478 4.84375C8.81841 4.67708 9.10448 4.52083 9.40298 4.375C9.70149 4.22917 10 4.10417 10.2985 4L10.8955 0H19.1045L19.7015 4C20.0249 4.10417 20.3296 4.22917 20.6157 4.375C20.9017 4.52083 21.1816 4.67708 21.4552 4.84375L25.8955 3.28125L30 9.21875L26.1567 11.6562C26.1816 11.8021 26.194 11.9427 26.194 12.0781V12.9219C26.194 13.0573 26.1692 13.1979 26.1194 13.3438L29.9627 15.7812L25.8582 21.7188L21.4552 20.1562C21.1816 20.3229 20.8955 20.4792 20.597 20.625C20.2985 20.7708 20 20.8958 19.7015 21L19.1045 25H10.8955ZM13.5075 22.5H16.4552L16.9776 19.1875C17.7488 19.0208 18.4639 18.776 19.1231 18.4531C19.7823 18.1302 20.3856 17.7396 20.9328 17.2812L24.6269 18.5625L26.0821 16.4375L22.8731 14.4062C22.9975 14.1146 23.0846 13.8073 23.1343 13.4844C23.1841 13.1615 23.209 12.8333 23.209 12.5C23.209 12.1667 23.1841 11.8385 23.1343 11.5156C23.0846 11.1927 22.9975 10.8854 22.8731 10.5938L26.0821 8.5625L24.6269 6.4375L20.9328 7.75C20.3856 7.27083 19.7823 6.86979 19.1231 6.54688C18.4639 6.22396 17.7488 5.97917 16.9776 5.8125L16.4925 2.5H13.5448L13.0224 5.8125C12.2512 5.97917 11.5361 6.22396 10.8769 6.54688C10.2177 6.86979 9.61443 7.26042 9.06716 7.71875L5.37313 6.4375L3.91791 8.5625L7.12687 10.5625C7.00249 10.875 6.91542 11.1875 6.86567 11.5C6.81592 11.8125 6.79104 12.1458 6.79104 12.5C6.79104 12.8333 6.81592 13.1562 6.86567 13.4688C6.91542 13.7812 7.00249 14.0938 7.12687 14.4062L3.91791 16.4375L5.37313 18.5625L9.06716 17.25C9.61443 17.7292 10.2177 18.1302 10.8769 18.4531C11.5361 18.776 12.2512 19.0208 13.0224 19.1875L13.5075 22.5ZM15.0746 16.875C16.5174 16.875 17.7488 16.4479 18.7687 15.5938C19.7886 14.7396 20.2985 13.7083 20.2985 12.5C20.2985 11.2917 19.7886 10.2604 18.7687 9.40625C17.7488 8.55208 16.5174 8.125 15.0746 8.125C13.607 8.125 12.3694 8.55208 11.3619 9.40625C10.3545 10.2604 9.85075 11.2917 9.85075 12.5C9.85075 13.7083 10.3545 14.7396 11.3619 15.5938C12.3694 16.4479 13.607 16.875 15.0746 16.875Z" fill="#4B5563"/>
</svg>